<svg xmlns="http://www.w3.org/2000/svg" viewBox="0 0 64 64">
  <defs>
    <radialGradient id="steam" cx="50%" cy="30%" r="60%">
      <stop offset="0" stop-color="rgba(255,255,255,0.35)"/>
      <stop offset="1" stop-color="rgba(255,255,255,0)"/>
    </radialGradient>
  </defs>
  <rect width="64" height="64" fill="none"/>
  <g transform="translate(10 10)">
    <path d="M22 6c-.6 2 2 3.5 1.4 6-.4 1.7-2.4 2.7-2.4 4.6 0 2.2 2.6 3.6 4.5 2.4 1.3-.8 1.7-2.4 1.4-3.8-.5-2.3-2.4-4.2-1.2-6.6.4-.8.8-1.7.2-2.6-.6-.8-2-1-3.9-.6z" fill="#fff3d6" opacity=".75"/>
    <path d="M29 5.5c-.4 1.6 1.6 2.8 1.1 4.8-.4 1.8-2.2 2.9-2.2 4.7 0 1.9 2.1 3.2 3.8 2.3 1.3-.7 1.7-2.3 1.4-3.6-.4-2.1-2-3.8-1-5.8.4-.7.7-1.6.1-2.4-.7-.9-1.9-1.2-3.2-1z" fill="#fff6e1" opacity=".7"/>
    <ellipse cx="22" cy="22" rx="18" ry="6" fill="#ffd28c"/>
    <path d="M4 22c1.6 11 8.8 18 18 18s16.4-7 18-18z" fill="#f9b24c"/>
    <path d="M6.5 23c1.4 9.4 7.4 14.8 15.5 14.8S36.1 32.4 37.5 23z" fill="#fff" opacity=".6"/>
    <path d="M7 20c5-1.5 9-1.2 12 0s7 1.3 12-.2" fill="none" stroke="#ffe3a8" stroke-width="3" stroke-linecap="round"/>
    <path d="M8 26c4 1.4 7 1 10 .2 3-.8 6-1.2 10 0" fill="none" stroke="#ffe6b3" stroke-width="3" stroke-linecap="round"/>
    <path d="M34 21c3.5 1.2 5.4 3.6 5 6.2-.5 3.5-5.3 6-13 6s-12.3-2.5-13-6.2c-.4-2.6 1.5-5 5-6.2z" fill="#fef6e5"/>
    <ellipse cx="22" cy="10" rx="12" ry="10" fill="url(#steam)" opacity=".8"/>
    <path d="M9 29c2 4.5 6.2 7 13 7s10.8-2.5 13-7" fill="none" stroke="#f7d08a" stroke-width="3" stroke-linecap="round"/>
  </g>
</svg>
